# WaveFront *.obj file (generated by CINEMA 4D)

v -5.28228950500488 0 5.27395868301392
v -5.28228950500488 13.50940704345703 5.27395868301392
v 5.28228950500488 0 5.27395868301392
v 5.28228950500488 13.50940704345703 5.27395868301392
v 5.28228950500488 0 -5.27395868301392
v 5.28228950500488 13.50940704345703 -5.27395868301392
v -5.28228950500488 0 -5.27395868301392
v -5.28228950500488 13.50940704345703 -5.27395868301392
# 8 vertices

vn 0 0 1
vn 1 0 0
vn 0 0 -1
vn -1 0 0
vn 0 1 0
vn 0 -1 0
# 6 normals

vt 0.3850536942482 0.69801568984985 0
vt 0.00397256296128 0.69801568984985 0
vt 0.00397256296128 0.99602741003036 0
vt 0.3850536942482 0.99602741003036 0
vt 0.39299881458282 0.6149463057518 0
vt 0.39299881458282 0.99602741003036 0
vt 0.69054055213928 0.99602741003036 0
vt 0.69054055213928 0.6149463057518 0
vt 0.00397256296128 0.69007056951523 0
vt 0.3850536942482 0.69007056951523 0
vt 0.3850536942482 0.39205884933472 0
vt 0.00397256296128 0.39205884933472 0
vt 0.39299881458282 0.22592008113861 0
vt 0.39299881458282 0.60700118541718 0
vt 0.69054055213928 0.60700118541718 0
vt 0.69054055213928 0.22592008113861 0
vt 0.30151429772377 0.08610200881958 0
vt 0.00397256296128 0.08610200881958 0
vt 0.00397256296128 0.38411366939545 0
vt 0.30151429772377 0.38411366939545 0
vt 0.99602741003036 0.69801568984985 0
vt 0.69848567247391 0.69801568984985 0
vt 0.69848567247391 0.99602741003036 0
vt 0.99602741003036 0.99602741003036 0
# 24 texture coordinates

o 4_can_pack_poly
usemtl Delault
f 3/4/1 4/3/1 2/2/1 1/1/1
f 5/8/2 6/7/2 4/6/2 3/5/2
f 7/12/3 8/11/3 6/10/3 5/9/3
f 1/16/4 2/15/4 8/14/4 7/13/4
f 4/20/5 6/19/5 8/18/5 2/17/5
f 5/24/6 3/23/6 1/22/6 7/21/6

